<?xml version="1.0" encoding="UTF-8"?>
<svg version="1.1" xmlns="http://www.w3.org/2000/svg" width="386" height="337">
<path d="M0 0 C127.38 0 254.76 0 386 0 C386 111.21 386 222.42 386 337 C258.62 337 131.24 337 0 337 C0 225.79 0 114.58 0 0 Z " fill="#FAFAFA" transform="translate(0,0)"/>
<path d="M0 0 C0.68981964 0.29272797 1.37963928 0.58545593 2.09036255 0.88705444 C3.55209115 1.5085407 5.01283724 2.13234223 6.47265625 2.75830078 C8.65132466 3.69208419 10.83313459 4.61815949 13.015625 5.54296875 C20.60806382 8.77302098 28.12907611 12.12184917 35.59182739 15.64111328 C40.86669189 18.12477838 46.19783557 20.4479597 51.5703125 22.7109375 C56.95673894 24.98758941 62.32069247 27.29745343 67.64160156 29.72412109 C68.61615295 30.16823334 69.59070435 30.61234558 70.5947876 31.06991577 C71.32921082 31.40520294 72.06363403 31.74049011 72.8203125 32.0859375 C72.89034809 41.96222612 72.94339218 51.83845402 72.97574902 61.71494198 C72.99129197 66.3028088 73.01231766 70.89050361 73.04663086 75.47827148 C73.079636 79.91980704 73.09725056 84.36117895 73.10494423 88.80282784 C73.11041497 90.48299289 73.12109345 92.16315073 73.13750267 93.84324455 C73.27505042 108.533508 72.04900947 122.96150763 66.6328125 136.7734375 C66.33020508 137.56322998 66.02759766 138.35302246 65.71582031 139.16674805 C54.33652231 167.9265552 32.00865714 189.54485719 3.91015625 201.92773438 C-7.920679 206.89571345 -15.43667759 205.72648082 -27.20458984 200.95166016 C-37.45977615 196.45661805 -46.7859232 190.47579644 -55.1796875 183.0859375 C-56.49839844 181.99925781 -56.49839844 181.99925781 -57.84375 180.890625 C-74.09783811 167.0174174 -86.04649363 146.8017893 -91.1796875 126.0859375 C-91.4273436 125.0869191 -91.67499969 124.0879007 -91.93016052 123.05860901 C-94.2456867 112.7292063 -94.57372102 102.89496434 -94.47265625 92.33984375 C-94.46704437 90.59008655 -94.46278183 88.84032456 -94.45979309 87.09056091 C-94.44846938 82.53842603 -94.41911349 77.98658932 -94.38568115 73.43457031 C-94.35470742 68.76827017 -94.34123008 64.10192071 -94.32617188 59.43554688 C-94.29422867 50.31888113 -94.24318816 41.20243434 -94.1796875 32.0859375 C-78.74229229 25.12387616 -63.30740485 18.17549401 -47.6796875 11.6484375 C-37.35147685 7.32601997 -27.05285648 2.96769983 -17.00585938 -1.98583984 C-10.6205076 -5.01290634 -6.15786372 -2.64839455 0 0 Z " fill="#125C64" transform="translate(200.1796875,80.9140625)"/>
<path d="M0 0 C2.3125 1.6875 2.3125 1.6875 4.3125 4.6875 C4.48412025 7.37344915 4.54474552 9.95294901 4.5078125 12.63671875 C4.5049826 13.40933548 4.50215271 14.18195221 4.49923706 14.97798157 C4.48804878 17.44381243 4.46294703 19.90927906 4.4375 22.375 C4.42746843 24.04752079 4.41834289 25.72004728 4.41015625 27.39257812 C4.38811392 31.49102559 4.35359363 35.58920106 4.3125 39.6875 C5.31104004 39.66655273 6.30958008 39.64560547 7.33837891 39.62402344 C11.06186443 39.551333 14.7852879 39.5055958 18.50927734 39.46777344 C20.11745774 39.44772373 21.72556583 39.42047636 23.33349609 39.38574219 C25.6522002 39.33692736 27.96993625 39.31446572 30.2890625 39.296875 C31.00180328 39.27622986 31.71454407 39.25558472 32.44888306 39.23431396 C37.54065903 39.23205253 40.39933187 40.47788145 44.3125 43.6875 C45.99710589 47.05671177 45.62342974 50.7984862 45.6875 54.5 C45.74357422 55.71139648 45.74357422 55.71139648 45.80078125 56.94726562 C45.86610096 61.37811958 45.76859147 63.11478579 42.9140625 66.69921875 C38.73671728 69.89181442 35.77689587 69.82102842 30.6796875 69.78515625 C29.55193405 69.78303383 29.55193405 69.78303383 28.40139771 69.78086853 C25.9967249 69.77526465 23.59214473 69.76271157 21.1875 69.75 C19.55859509 69.7449855 17.92968873 69.7404225 16.30078125 69.73632812 C12.30465173 69.72529397 8.30859158 69.70802679 4.3125 69.6875 C4.33868408 70.72156982 4.36486816 71.75563965 4.3918457 72.82104492 C4.48256423 76.66929359 4.53982659 80.5174484 4.5871582 84.36645508 C4.61225347 86.03002839 4.64633796 87.69349196 4.68969727 89.35668945 C4.7505746 91.75239153 4.77875769 94.14663251 4.80078125 96.54296875 C4.82658768 97.2827446 4.8523941 98.02252045 4.87898254 98.78471375 C4.88112389 102.7557643 4.47136767 104.48771112 1.96948242 107.6340332 C-2.09453805 110.77493885 -5.41074831 110.94701416 -10.4375 111.125 C-11.62859375 111.18558594 -12.8196875 111.24617188 -14.046875 111.30859375 C-18.07915028 110.62068413 -20.38508679 109.94159488 -23.35302734 107.12817383 C-26.5791548 101.22777204 -25.36504666 93.35522735 -25.125 86.8125 C-25.08986166 85.15371125 -25.05792704 83.49485134 -25.02929688 81.8359375 C-24.95241707 77.78469472 -24.83178096 73.73687988 -24.6875 69.6875 C-25.69127686 69.70321045 -26.69505371 69.7189209 -27.72924805 69.73510742 C-31.46581955 69.78955114 -35.20235621 69.82390226 -38.93920898 69.85229492 C-40.55417789 69.86734876 -42.16910613 69.88779648 -43.78393555 69.91381836 C-46.10996555 69.95035286 -48.43545341 69.96726015 -50.76171875 69.98046875 C-51.83857185 70.00369453 -51.83857185 70.00369453 -52.93717957 70.02738953 C-57.38266751 70.02887016 -60.1360263 69.38811712 -63.6875 66.6875 C-66.47812176 63.08259347 -66.09140048 58.62167056 -66.125 54.25 C-66.15787109 53.49912109 -66.19074219 52.74824219 -66.22460938 51.97460938 C-66.26592639 47.70393285 -66.0703995 46.16129921 -63.28515625 42.71484375 C-59.12149466 39.46530937 -56.16862476 39.55385385 -51.0546875 39.58984375 C-49.92693405 39.59196617 -49.92693405 39.59196617 -48.77639771 39.59413147 C-46.3717249 39.59973535 -43.96714473 39.61228843 -41.5625 39.625 C-39.93359509 39.6300145 -38.30468873 39.6345775 -36.67578125 39.63867188 C-32.67965173 39.64970603 -28.68359158 39.66697321 -24.6875 39.6875 C-24.71368408 38.65343018 -24.73986816 37.61936035 -24.7668457 36.55395508 C-24.85756423 32.70570641 -24.91482659 28.8575516 -24.9621582 25.00854492 C-24.98725347 23.34497161 -25.02133796 21.68150804 -25.06469727 20.01831055 C-25.1255746 17.62260847 -25.15375769 15.22836749 -25.17578125 12.83203125 C-25.20158768 12.0922554 -25.2273941 11.35247955 -25.25398254 10.59028625 C-25.25612389 6.6192357 -24.84636767 4.88728888 -22.34448242 1.7409668 C-16.24360217 -2.97413968 -7.02099628 -2.49899868 0 0 Z " fill="#FAFBFC" transform="translate(199.6875,127.3125)"/>
<path d="M0 0 C3.45093911 1.36432476 4.26833843 3.21377 5.72265625 6.53125 C11.42950203 21.50305594 15.19090682 38.02038134 15.6875 54.0625 C15.72746094 55.21621094 15.76742188 56.36992187 15.80859375 57.55859375 C16.40857873 91.47539199 5.4171251 126.79072918 -16.3125 153.0625 C-17.17489008 154.13899386 -18.03685377 155.21582941 -18.8984375 156.29296875 C-42.97650389 185.97879327 -78.1994747 204.92589702 -116.1640625 209.3984375 C-130.85222337 210.77429054 -145.80174727 210.87274322 -160.3125 208.0625 C-161.33988281 207.86785156 -162.36726563 207.67320312 -163.42578125 207.47265625 C-182.76493451 203.40252312 -200.58855388 196.02153775 -216.88574219 184.85620117 C-220.2751707 182.5347762 -220.2751707 182.5347762 -224.3125 182.0625 C-226.14095267 183.56445289 -226.14095267 183.56445289 -227.875 185.5 C-231.09074654 188.92321406 -232.88336441 190.23701853 -237.625 190.5 C-238.38425781 190.56058594 -239.14351562 190.62117187 -239.92578125 190.68359375 C-242.88987719 189.91224964 -244.29033294 188.50157253 -246.12329102 186.08862305 C-248.56327467 181.93148399 -249.78893244 177.35397675 -251.125 172.75 C-251.59196289 171.25823242 -251.59196289 171.25823242 -252.06835938 169.73632812 C-253.88930194 163.64117313 -254.8211585 158.42387108 -254.3125 152.0625 C-252.51856332 149.19220131 -251.32986724 147.57118362 -248.3125 146.0625 C-240.21401657 145.29302639 -233.12913396 146.78512614 -225.4375 149.1875 C-223.92929688 149.61289062 -223.92929688 149.61289062 -222.390625 150.046875 C-216.23925351 151.92328805 -212.75614861 153.54103809 -209.3125 159.0625 C-208.5625 162.4375 -208.5625 162.4375 -209.3125 166.0625 C-211.39513943 168.99572236 -213.74893832 171.54471621 -216.3125 174.0625 C-201.47309863 186.29754573 -183.83177898 193.48001113 -165.3125 198.0625 C-164.33023438 198.3102417 -164.33023438 198.3102417 -163.328125 198.56298828 C-141.39176713 203.8661028 -116.78425404 202.54619212 -95.3125 196.0625 C-94.09433594 195.7015625 -92.87617188 195.340625 -91.62109375 194.96875 C-72.71641439 189.03472552 -56.46772395 179.85808234 -41.3125 167.0625 C-40.47847656 166.36382812 -39.64445313 165.66515625 -38.78515625 164.9453125 C-32.5347612 159.53279784 -27.31680987 153.63476437 -22.3125 147.0625 C-21.71824219 146.28390625 -21.12398437 145.5053125 -20.51171875 144.703125 C1.76663564 114.17921875 11.14681588 75.86848018 5.31640625 38.48046875 C2.43224941 22.71573224 2.43224941 22.71573224 -3.453125 7.890625 C-4.65636689 5.33100135 -4.10054885 3.71320978 -3.3125 1.0625 C-2.3125 0.0625 -2.3125 0.0625 0 0 Z " fill="#186067" transform="translate(323.3125,120.9375)"/>
<path d="M0 0 C1.68598886 0.03184273 3.37232572 0.04421787 5.05859375 0.05273438 C23.4254502 0.74396016 41.71933643 6.72608639 57.96484375 15.03710938 C58.65852051 15.38596191 59.35219727 15.73481445 60.06689453 16.09423828 C71.9170158 22.08437904 71.9170158 22.08437904 77.15234375 26.09960938 C79.66478894 28.26692872 79.66478894 28.26692872 81.90625 27.88085938 C84.44617732 26.83982655 85.8007368 25.43221876 87.71484375 23.47460938 C90.52328422 20.92766243 92.30887816 19.52109233 96.15234375 19.41210938 C100.01444596 20.04524088 101.85719927 20.74699882 104.96484375 23.03710938 C106.1875 25.24414063 106.1875 25.24414063 107.02734375 27.84960938 C107.34316406 28.82414062 107.65898437 29.79867187 107.984375 30.80273438 C108.30792969 31.87007812 108.63148438 32.93742187 108.96484375 34.03710938 C109.33996094 35.18695313 109.71507812 36.33679688 110.1015625 37.52148438 C114.31314611 51.05766187 114.31314611 51.05766187 112.96484375 58.03710938 C111.16837521 60.97134133 110.02073665 62.50916293 106.96484375 64.03710938 C99.40031099 65.28993556 92.32129786 63.31743852 85.08984375 61.28710938 C84.17420654 61.03501709 83.25856934 60.7829248 82.31518555 60.52319336 C76.64734718 58.85176737 72.27651462 57.08431188 68.58984375 52.22460938 C67.59771015 48.75214176 68.03310012 46.53114798 68.96484375 43.03710938 C70.76362163 40.19195102 72.78729101 37.60089471 74.96484375 35.03710938 C59.41351205 24.14602773 42.42857508 16.4774723 23.96484375 12.03710938 C22.69382813 11.71871094 21.4228125 11.4003125 20.11328125 11.07226562 C11.02703341 9.02630303 2.00858178 8.76189435 -7.28515625 8.72460938 C-8.4450708 8.71905029 -9.60498535 8.71349121 -10.80004883 8.70776367 C-46.34460845 9.00306393 -79.5612103 23.64090729 -105.03515625 48.03710938 C-105.88078125 48.84148437 -106.72640625 49.64585938 -107.59765625 50.47460938 C-108.80421875 51.74304688 -108.80421875 51.74304688 -110.03515625 53.03710938 C-110.67710938 53.69582031 -111.3190625 54.35453125 -111.98046875 55.03320312 C-135.46592004 79.95069413 -149.04241811 115.89078332 -148.36962891 150.09765625 C-147.92260719 161.29216378 -146.18515989 172.02777698 -143.66015625 182.91210938 C-143.46333252 183.76772461 -143.26650879 184.62333984 -143.0637207 185.50488281 C-141.76996174 190.81972892 -140.04808244 195.72024694 -137.81787109 200.71728516 C-136.9346275 203.33505826 -136.75305999 205.29255986 -137.03515625 208.03710938 C-139.03515625 210.03710938 -139.03515625 210.03710938 -141.44140625 210.13085938 C-144.03515625 209.03710938 -144.03515625 209.03710938 -145.87890625 205.88085938 C-146.4600256 204.44435007 -147.00975337 202.99491955 -147.53515625 201.53710938 C-147.82849854 200.73450684 -148.12184082 199.9319043 -148.42407227 199.10498047 C-161.63452441 161.13977476 -159.14261828 119.83186979 -141.89013672 83.63476562 C-129.87170115 59.54779679 -111.75578531 38.56963584 -89.03515625 24.03710938 C-87.50761719 23.00070313 -87.50761719 23.00070313 -85.94921875 21.94335938 C-60.38217755 5.19920141 -30.12973255 -0.58048109 0 0 Z " fill="#175F67" transform="translate(197.03515625,32.962890625)"/>
<path d="M0 0 C2.31 0.66 4.62 1.32 7 2 C7.625 4.375 7.625 4.375 8 7 C7.34 7.66 6.68 8.32 6 9 C3.875 8.625 3.875 8.625 2 8 C2 7.34 2 6.68 2 6 C1.01 6.495 1.01 6.495 0 7 C0 8.65 0 10.3 0 12 C-0.99 12.495 -0.99 12.495 -2 13 C-3.5625 10.6875 -3.5625 10.6875 -5 8 C-4.67 7.01 -4.34 6.02 -4 5 C-3.01 4.67 -2.02 4.34 -1 4 C-0.26676204 1.98491642 -0.26676204 1.98491642 0 0 Z " fill="#10585F" transform="translate(94,279)"/>
<path d="M0 0 C4.10899581 1.12795963 8.07561214 2.33510818 12 4 C7.49667324 7.00221784 3.42232421 8.31896025 -2 8 C-2 4.23312136 -1.76462683 3.08809695 0 0 Z " fill="#1C6168" transform="translate(189,279)"/>
<path d="M0 0 C0.33 0.66 0.66 1.32 1 2 C1.78375 1.79375 2.5675 1.5875 3.375 1.375 C4.674375 1.189375 4.674375 1.189375 6 1 C6.66 1.66 7.32 2.32 8 3 C7.625 5.625 7.625 5.625 7 8 C5.1875 8.6875 5.1875 8.6875 3 9 C1.25 7.9375 1.25 7.9375 0 6 C-0.1875 2.8125 -0.1875 2.8125 0 0 Z " fill="#F4F4F4" transform="translate(0,279)"/>
<path d="M0 0 C4.455 0.99 4.455 0.99 9 2 C9 2.33 9 2.66 9 3 C7.906875 3.309375 6.81375 3.61875 5.6875 3.9375 C3.44592006 4.58337897 1.2130649 5.2623117 -1 6 C-1 6.66 -1 7.32 -1 8 C-3.97 7.505 -3.97 7.505 -7 7 C-6.67 6.01 -6.34 5.02 -6 4 C-4.35 3.67 -2.7 3.34 -1 3 C-0.67 2.01 -0.34 1.02 0 0 Z " fill="#276B72" transform="translate(228,38)"/>
<path d="M0 0 C2.0625 0.4375 2.0625 0.4375 4 1 C4.6875 2.8125 4.6875 2.8125 5 5 C3.5625 6.75 3.5625 6.75 2 8 C0.68 7.34 -0.64 6.68 -2 6 C-1.125 1.125 -1.125 1.125 0 0 Z " fill="#F4F4F4" transform="translate(10,276)"/>
<path d="M0 0 C1.125 4.75 1.125 4.75 0 7 C-1.65 6.67 -3.3 6.34 -5 6 C-5.33 4.35 -5.66 2.7 -6 1 C-4 0 -4 0 0 0 Z " fill="#135A61" transform="translate(305,270)"/>
<path d="M0 0 C3.96 0 7.92 0 12 0 C11.01 0.33 10.02 0.66 9 1 C9 1.66 9 2.32 9 3 C9.99 3.33 10.98 3.66 12 4 C11.67 4.66 11.34 5.32 11 6 C9.68 5.67 8.36 5.34 7 5 C6.67 3.68 6.34 2.36 6 1 C4.02 1 2.04 1 0 1 C0 0.67 0 0.34 0 0 Z " fill="#D9E0E0" transform="translate(197,330)"/>
<path d="M0 0 C2.0625 0.75 2.0625 0.75 4 2 C4.33 2.99 4.66 3.98 5 5 C2.36 5 -0.28 5 -3 5 C-2.625 3.0625 -2.625 3.0625 -2 1 C-1.34 0.67 -0.68 0.34 0 0 Z " fill="#ECECEC" transform="translate(199,332)"/>
<path d="M0 0 C1.32 0.33 2.64 0.66 4 1 C4.33 2.32 4.66 3.64 5 5 C2.69 5 0.38 5 -2 5 C-1.34 3.35 -0.68 1.7 0 0 Z " fill="#E0E0E0" transform="translate(104,332)"/>
<path d="M0 0 C0.99 0.33 1.98 0.66 3 1 C3.99 0.67 4.98 0.34 6 0 C6 0.66 6 1.32 6 2 C2.04 3.98 2.04 3.98 -2 6 C-1.125 1.125 -1.125 1.125 0 0 Z " fill="#F2F2F2" transform="translate(44,313)"/>
<path d="M0 0 C0.66 0 1.32 0 2 0 C1.67 1.65 1.34 3.3 1 5 C0.01 5.33 -0.98 5.66 -2 6 C-2 2 -2 2 0 0 Z " fill="#125A61" transform="translate(293,278)"/>
<path d="M0 0 C0 3.10551666 -0.5393715 4.35261084 -2 7 C-3.32 6.67 -4.64 6.34 -6 6 C-5 3 -5 3 -3 1.875 C-2.34 1.58625 -1.68 1.2975 -1 1 C-0.67 0.67 -0.34 0.34 0 0 Z " fill="#F2F2F2" transform="translate(329,313)"/>
</svg>
